# This file uses centimeters as units for non-parametric coordinates.

mtllib rug.mtl
g default
v -3.242419 0.329994 6.255651
v 3.242419 0.329994 6.255651
v -3.242419 0.329994 -6.255651
v 3.242419 0.329994 -6.255651
v -3.462951 0.329994 6.476184
v -3.472133 0.332455 6.485366
v -3.478855 0.339177 6.492088
v -3.481316 0.348359 6.494548
v 3.481316 0.348359 6.494548
v 3.478855 0.339177 6.492088
v 3.472133 0.332455 6.485366
v 3.462951 0.329994 6.476184
v 3.462951 0.375911 6.476184
v 3.472133 0.373451 6.485366
v 3.478855 0.366729 6.492088
v 3.481316 0.357546 6.494548
v -3.481316 0.357546 6.494548
v -3.478855 0.366729 6.492088
v -3.472133 0.373451 6.485366
v -3.462951 0.375911 6.476184
v -3.462951 0.375911 -6.476184
v -3.472133 0.373451 -6.485366
v -3.478855 0.366729 -6.492088
v -3.481316 0.357546 -6.494548
v 3.481316 0.357546 -6.494548
v 3.478855 0.366729 -6.492088
v 3.472133 0.373451 -6.485366
v 3.462951 0.375911 -6.476184
v 3.462951 0.329994 -6.476184
v 3.472133 0.332455 -6.485366
v 3.478855 0.339177 -6.492088
v 3.481316 0.348359 -6.494548
v -3.481316 0.348359 -6.494548
v -3.478855 0.339177 -6.492088
v -3.472133 0.332455 -6.485366
v -3.462951 0.329994 -6.476184
v -3.242419 0.365495 6.255651
v 3.242419 0.365495 6.255651
v 3.242419 0.365495 -6.255651
v -3.242419 0.365495 -6.255651
v -3.242419 0.340410 -6.255651
v 3.242419 0.340410 -6.255651
v 3.242419 0.340410 6.255651
v -3.242419 0.340410 6.255651
v -3.250751 0.375911 6.263984
v -3.246585 0.374795 6.259818
v -3.243536 0.371745 6.256768
v -3.242419 0.367579 6.255651
v 3.250751 0.375911 6.263984
v 3.246585 0.374795 6.259818
v 3.243536 0.371745 6.256768
v 3.242419 0.367579 6.255651
v -3.250751 0.375911 -6.263984
v -3.246585 0.374795 -6.259818
v -3.243536 0.371745 -6.256768
v -3.242419 0.367579 -6.255651
v 3.250751 0.375911 -6.263984
v 3.246585 0.374795 -6.259818
v 3.243536 0.371745 -6.256768
v 3.242419 0.367579 -6.255651
vt 0.625000 0.750000
vt 0.375000 1.000000
vt 0.625000 1.000000
vt 0.375000 0.599990
vt 0.625000 0.500000
vt 0.625000 0.650010
vt 0.375000 0.750000
vt 0.625000 0.099990
vt 0.375000 0.150010
vt 0.625000 0.599990
vt 0.375000 0.650010
vt 0.875000 0.099990
vt 0.625000 0.150010
vt 0.375000 0.099990
vt 0.125000 0.150010
vt 0.625000 0.000000
vt 0.375000 0.000000
vt 0.375000 0.750000
vt 0.625000 0.750000
vt 0.875000 0.000000
vt 0.625000 0.000000
vt 0.125000 0.000000
vt 0.375000 0.000000
vt 0.125000 0.000000
vt 0.125000 0.250000
vt 0.875000 0.150010
vt 0.875000 0.000000
vt 0.125000 0.099990
vt 0.374861 0.013468
vt 0.374758 0.050160
vt 0.622305 0.058347
vt 0.624187 0.016119
vt 0.625124 0.236574
vt 0.625198 0.199967
vt 0.374802 0.199967
vt 0.374876 0.236574
vt 0.125000 0.236599
vt 0.375000 0.513401
vt 0.125000 0.200002
vt 0.375000 0.549999
vt 0.875000 0.200002
vt 0.625000 0.549999
vt 0.875000 0.236599
vt 0.625000 0.513401
vt 0.825948 0.154339
vt 0.625000 0.736599
vt 0.691989 0.575827
vt 0.625000 0.700001
vt 0.125000 0.049998
vt 0.313982 0.524685
vt 0.125000 0.013401
vt 0.269313 0.432937
vt 0.375000 0.750000
vt 0.625000 0.750000
vt 0.625000 1.000000
vt 0.375000 1.000000
vt 0.375000 0.250000
vt 0.625000 0.250000
vt 0.625000 0.500000
vt 0.375000 0.500000
vt 0.625000 0.250000
vt 0.875000 0.250000
vt 0.125000 0.250000
vt 0.375000 0.250000
vt 0.625000 0.250000
vt 0.375000 0.250000
vt 0.625000 0.500000
vt 0.625000 0.250000
vt 0.375000 0.500000
vt 0.625000 0.500000
vt 0.375000 0.250000
vt 0.375000 0.500000
vt 0.375000 0.500000
vt 0.875000 0.250000
vt 0.375080 0.250058
vt 0.375000 0.250000
vt 0.624975 0.250000
vt 0.625000 0.250000
vt 0.375000 0.494426
vt 0.192007 0.314854
vt 0.375000 0.479205
vt 0.375000 0.491966
vt 0.869426 0.250000
vt 0.689854 0.432993
vt 0.866966 0.250000
vt 0.854205 0.250000
vn 0.000000 1.000000 0.000000
vn 0.000000 1.000000 0.000000
vn 0.000000 1.000000 0.000000
vn 0.000000 1.000000 0.000000
vn 0.000000 -1.000000 0.000000
vn 0.000000 -1.000000 0.000000
vn 0.000000 -1.000000 0.000000
vn 0.000000 -1.000000 0.000000
vn 0.000000 -0.132639 0.991164
vn 0.000000 -0.499169 0.866505
vn 0.000000 -0.499169 0.866505
vn 0.000000 -0.132639 0.991164
vn 0.000000 -0.707104 0.707109
vn 0.000000 -0.707104 0.707109
vn -0.405279 -0.912407 0.057111
vn -0.012429 -0.999900 0.006704
vn 0.012429 -0.999900 0.006704
vn 0.405279 -0.912407 0.057111
vn 0.000000 0.132639 0.991164
vn 0.000000 0.499169 0.866505
vn 0.000000 0.499169 0.866505
vn 0.000000 0.132639 0.991164
vn 0.000000 0.707104 0.707109
vn 0.000000 0.707104 0.707109
vn 0.405279 0.912407 0.057111
vn 0.012872 0.999893 0.006942
vn -0.012872 0.999893 0.006942
vn -0.405279 0.912407 0.057111
vn 0.000000 0.132639 -0.991164
vn 0.000000 0.499169 -0.866505
vn 0.000000 0.499169 -0.866505
vn 0.000000 0.132639 -0.991164
vn 0.000000 0.707104 -0.707109
vn 0.000000 0.707104 -0.707109
vn -0.405279 0.912407 -0.057111
vn -0.012872 0.999893 -0.006942
vn 0.012872 0.999893 -0.006942
vn 0.405279 0.912407 -0.057111
vn 0.000000 -0.132639 -0.991164
vn 0.000000 -0.499169 -0.866505
vn 0.000000 -0.499169 -0.866505
vn 0.000000 -0.132639 -0.991164
vn 0.000000 -0.707104 -0.707109
vn 0.000000 -0.707104 -0.707109
vn 0.405279 -0.912407 -0.057111
vn 0.012429 -0.999900 -0.006704
vn -0.012429 -0.999900 -0.006704
vn -0.405279 -0.912407 -0.057111
vn 0.991152 -0.132734 0.000000
vn 0.991152 -0.132734 0.000000
vn 0.991152 0.132734 0.000000
vn 0.991152 0.132734 0.000000
vn -0.991152 -0.132734 0.000000
vn -0.991152 -0.132734 0.000000
vn -0.991152 0.132734 0.000000
vn -0.991152 0.132734 0.000000
vn 0.000000 -1.000000 0.000000
vn 0.000000 -1.000000 0.000000
vn 0.000000 -1.000000 -0.000000
vn 0.000000 -1.000000 -0.000000
vn -0.965910 0.258878 0.000000
vn -0.965910 0.258878 0.000000
vn -0.707105 0.707108 0.000000
vn -0.707105 0.707108 0.000000
vn 0.707105 0.707108 0.000000
vn 0.707105 0.707108 0.000000
vn 0.965910 0.258878 0.000000
vn 0.965910 0.258878 0.000000
vn 0.965910 -0.258878 0.000000
vn 0.965910 -0.258878 0.000000
vn 0.707105 -0.707108 0.000000
vn 0.707105 -0.707108 0.000000
vn -0.707105 -0.707108 0.000000
vn -0.707105 -0.707108 0.000000
vn -0.965910 -0.258878 0.000000
vn -0.965910 -0.258878 0.000000
vn 0.000000 0.000000 1.000000
vn 0.000000 0.000000 1.000000
vn 0.000000 0.000000 1.000000
vn 0.000000 0.000000 1.000000
vn -1.000000 0.000000 0.000000
vn -1.000000 0.000000 0.000000
vn -1.000000 0.000000 0.000000
vn -1.000000 0.000000 0.000000
vn 0.000000 0.000000 -1.000000
vn 0.000000 0.000000 -1.000000
vn 0.000000 0.000000 -1.000000
vn 0.000000 0.000000 -1.000000
vn 1.000000 0.000000 0.000000
vn 1.000000 0.000000 0.000000
vn 1.000000 0.000000 0.000000
vn 1.000000 0.000000 0.000000
vn -0.002302 0.999997 -0.001184
vn 0.002302 0.999997 -0.001184
vn 0.002302 0.999997 0.001184
vn -0.002302 0.999997 0.001184
vn 0.000000 0.175910 -0.984406
vn 0.000000 0.175910 -0.984406
vn 0.000000 0.000000 -1.000000
vn 0.000000 0.000000 -1.000000
vn -0.984418 0.175846 0.000000
vn -0.984418 0.175846 0.000000
vn -1.000000 0.000000 0.000000
vn -1.000000 0.000000 0.000000
vn 0.000000 0.175910 0.984406
vn 0.000000 0.175910 0.984406
vn 0.000000 0.000000 1.000000
vn 0.000000 0.000000 1.000000
vn 0.984418 0.175846 0.000000
vn 0.984418 0.175846 0.000000
vn 1.000000 0.000000 0.000000
vn 1.000000 0.000000 0.000000
vn 0.965932 0.258797 0.000000
vn 0.965932 0.258797 0.000000
vn 0.348032 0.919924 -0.180593
vn 0.348032 0.919924 0.180593
vn 0.707174 0.707039 0.000000
vn 0.707174 0.707039 0.000000
vn 0.000000 0.258834 -0.965922
vn 0.000000 0.258834 -0.965922
vn 0.000000 0.707139 -0.707074
vn -0.348032 0.919924 -0.180593
vn 0.000000 0.707139 -0.707074
vn 0.000000 0.258834 0.965922
vn 0.000000 0.258834 0.965922
vn -0.348032 0.919924 0.180593
vn 0.000000 0.707139 0.707074
vn 0.000000 0.707139 0.707074
vn -0.965932 0.258797 0.000000
vn -0.965932 0.258797 0.000000
vn -0.707174 0.707039 0.000000
vn -0.707174 0.707039 0.000000
s off
g rug
usemtl initialShadingGroup
f 37/66/1 38/68/2 39/70/3 40/72/4
f 41/53/5 42/54/6 43/55/7 44/56/8
s 1
f 8/14/9 7/30/10 10/31/11 9/8/12
f 7/30/10 6/29/13 11/32/14 10/31/11
s 2
f 6/29/15 5/17/16 12/21/17 11/32/18
s 1
f 16/13/19 15/34/20 18/35/21 17/9/22
f 15/34/20 14/33/23 19/36/24 18/35/21
s 4
f 14/33/25 13/58/26 20/64/27 19/36/28
s 5
f 24/4/29 23/40/30 26/42/31 25/10/32
f 23/40/30 22/38/33 27/44/34 26/42/31
s 4
f 22/38/35 21/60/36 28/5/37 27/44/38
s 5
f 32/6/39 31/48/40 34/50/41 33/11/42
f 31/48/40 30/46/43 35/52/44 34/50/41
s 2
f 30/46/45 29/19/46 36/7/47 35/52/48
s 1
f 8/14/9 9/8/12 16/13/19 17/9/22
s 5
f 24/4/29 25/10/32 32/6/39 33/11/42
s 7
f 9/8/49 32/12/50 25/26/51 16/13/52
s 8
f 33/28/53 8/14/54 17/9/55 24/15/56
s 2
f 1/23/57 2/16/58 12/21/17 5/17/16
f 4/1/59 3/18/60 36/7/47 29/19/46
f 2/16/58 4/20/59 29/27/46 12/21/17
f 3/22/60 1/23/57 5/17/16 36/24/47
s 8
f 17/9/55 18/35/61 23/39/62 24/15/56
s 4
f 18/35/63 19/36/28 22/37/35 23/39/64
f 19/36/28 20/64/27 21/25/36 22/37/35
f 13/58/26 14/33/25 27/43/38 28/62/37
f 14/33/25 15/34/65 26/41/66 27/43/38
s 7
f 15/34/67 16/13/52 25/26/51 26/41/68
f 9/8/49 10/31/69 31/47/70 32/12/50
s 2
f 10/31/71 11/32/18 30/45/45 31/47/72
f 11/32/18 12/21/17 29/27/46 30/45/45
f 5/17/16 6/29/15 35/51/48 36/24/47
f 6/29/15 7/30/73 34/49/74 35/51/48
s 8
f 7/30/75 8/14/54 33/28/53 34/49/76
s off
f 3/18/77 4/1/78 42/54/79 41/53/80
f 4/1/81 2/3/82 43/55/83 42/54/84
f 2/3/85 1/2/86 44/56/87 43/55/88
f 1/2/89 3/18/90 41/53/91 44/56/92
s 4
f 49/61/93 45/57/94 20/64/27 13/58/26
f 53/73/95 57/59/96 28/5/37 21/60/36
f 57/74/96 49/61/93 13/58/26 28/62/37
f 45/57/94 53/63/95 21/25/36 20/64/27
s 9
f 48/71/97 52/65/98 38/68/99 37/66/100
s 10
f 52/65/101 60/67/102 39/70/103 38/68/104
s 11
f 60/67/105 56/69/106 40/72/107 39/70/108
s 12
f 56/69/109 48/71/110 37/66/111 40/72/112
f 47/76/113 48/71/110 56/69/109 55/81/114
s 4
f 45/57/94 46/75/115 54/80/116 53/63/95
f 46/75/115 47/76/117 55/82/118 54/80/116
s 9
f 48/71/97 47/76/119 51/78/120 52/65/98
s 4
f 47/76/121 46/75/115 50/77/122 51/78/123
f 46/75/115 45/57/94 49/61/93 50/77/122
s 11
f 55/81/124 56/69/106 60/67/105 59/85/125
s 4
f 53/73/95 54/79/116 58/84/126 57/59/96
f 54/79/116 55/81/127 59/85/128 58/84/126
s 10
f 52/65/101 51/78/129 59/85/130 60/67/102
s 4
f 51/78/131 50/77/122 58/83/126 59/86/132
f 50/77/122 49/61/93 57/74/96 58/83/126
